PathFileType	4	(X/Y/Z)	13_coords_data.trc
DataRate	CameraRate	NumFrames	NumMarkers	Units	OrigDataRate	OrigDataStartFrame	OrigNumFrames
30.0	30.0	5	21	m	30.0	48	66
Frame#	Time	THUMB_TIP	THUMB_IP	THUMB_MCP	THUMB_CMC	INDEX_TIP	INDEX_DIP	INDEX_PIP	INDEX_MCP	MIDDLE_TIP	MIDDLE_DIP	MIDDLE_PIP	MIDDLE_MCP	RING_TIP	RING_DIP	RING_PIP	RING_MCP	PINKY_TIP	PINKY_DIP	PINKY_PIP	PINKY_MCP	WRIST
X1	Y1	Z1	X2	Y2	Z2	X3	Y3	Z3	X4	Y4	Z4	X5	Y5	Z5	X6	Y6	Z6	X7	Y7	Z7	X8	Y8	Z8	X9	Y9	Z9	X10	Y10	Z10	X11	Y11	Z11	X12	Y12	Z12	X13	Y13	Z13	X14	Y14	Z14	X15	Y15	Z15	X16	Y16	Z16	X17	Y17	Z17	X18	Y18	Z18	X19	Y19	Z19	X20	Y20	Z20	X21	Y21	Z21
46	1.5666666666666598	0.5305238059941135	-0.02715807019555272	-0.1506951124403666	0.5140637585454189	-0.02899241070051628	-0.1347670857923926	0.4883283458149904	-0.03422402068851438	-0.11805963869452685	0.47624183040723844	-0.032452139413826964	-0.07515664833200564	0.5736179418460445	-0.00584553317447889	-0.1479847958353594	0.5592849914306869	0.0049872818390338525	-0.14570079686996718	0.5370520381453283	0.015178534348942119	-0.13988323780362732	0.49940325240193145	0.009010844776333404	-0.12095799985575106	0.5932264995634895	0.00914331034669158	-0.13299216265690073	0.577698278098703	0.016605001993903468	-0.12740669079657674	0.5513380166720346	0.025447576484422085	-0.1186685534723334	0.5105628006916341	0.020711250220472932	-0.10103061435595373	0.5942609312751216	0.002330027441070026	-0.11150094524829846	0.5807400050737389	0.01208111539869583	-0.10463794019953077	0.559969822111686	0.0225185073808708	-0.09570259872126119	0.5219246388837401	0.021139283698006328	-0.08208707048381658	0.5903798736664091	-0.019382257878043485	-0.07839432902070831	0.5785613011240777	-0.00800741745692457	-0.07350205465639381	0.561687641113064	0.0034117286698027716	-0.0684330588417218	0.5271457517506117	0.011057188988199296	-0.06141249855126518	0.46228308100186083	-0.023011742144276925	-0.051989820119430985
47	1.599999999999993	0.5302499856888603	-0.026488600937916496	-0.150879205046355	0.5138181053988957	-0.028513542499405298	-0.13494518729160054	0.48816272071884254	-0.03389624742495234	-0.11816282379288623	0.47613982736424876	-0.032420171315703294	-0.07523077009516788	0.5737757629173564	-0.005632143420903568	-0.1479809290817563	0.5594366968148179	0.005178678756974531	-0.14563203420430249	0.5371883816262978	0.015302231624810148	-0.1397553019827017	0.4995340977986576	0.009053125756640079	-0.12086774842815351	0.593323279714096	0.008684543370275022	-0.13272122278923515	0.577847433177153	0.016288264741057823	-0.12718212581585664	0.5515325223510438	0.025288109122264535	-0.11846789496465826	0.5107109089713125	0.020693973339477978	-0.10089980689324096	0.5941753193863704	0.0018374711623249107	-0.11118418617726056	0.580735688751588	0.011727383229560129	-0.10436026005639887	0.5600457242061551	0.02236349554316408	-0.09547327738728473	0.5219775477825341	0.02119315802599031	-0.08190253356551991	0.5901890248114072	-0.01936388359303165	-0.0782000266025441	0.5784898399431656	-0.007877343765764655	-0.07328184846269248	0.5616637446238575	0.0036058812847943322	-0.06819951851041894	0.527104736220123	0.011193081575864183	-0.061200034179855756	0.46228308100186094	-0.023011742144276925	-0.051989820119430985
48	1.6333333333333262	0.5299896970471116	-0.025823659025933532	-0.15102771987446922	0.5135714926157093	-0.028030270517351852	-0.13510373077077353	0.4880024336605785	-0.03360901224330615	-0.11825377929000824	0.4760407442481512	-0.03240376090184749	-0.07529617978067182	0.5738425932838378	-0.0054441241210130276	-0.1480333438039511	0.5594993697756239	0.005347931836437114	-0.1456243050735273	0.5372418163286862	0.01541984989366707	-0.1396940762242197	0.49959498264703456	0.009082631277830377	-0.12082103545276068	0.5933180250919523	0.008212536982902585	-0.13256559501728304	0.5779043421296517	0.01597816442223743	-0.12707802652011313	0.5516362057837941	0.025127803727987286	-0.1183786780680669	0.5107927430045778	0.020691571628182248	-0.10082079340164352	0.5940546120129515	0.00143431061899435	-0.11101930584056385	0.5806898149808191	0.011449052052121877	-0.10423055379637303	0.5600753928673488	0.022255922768450453	-0.0953740801613292	0.5220051332866208	0.021226667801088728	-0.0817977476790952	0.5900019456623842	-0.01936417808997526	-0.07813221153360483	0.5784251602005669	-0.007763389560457856	-0.07319260184614262	0.5616525845897322	0.0037860137964689233	-0.06808339364155314	0.5270745599886333	0.011282287862489526	-0.06107985590602949	0.46228308100186083	-0.023011742144276925	-0.051989820119430985
49	1.6666666666666594	0.5297094457227866	-0.025221968025947894	-0.15116266395486672	0.5133109844048115	-0.027611467917549315	-0.13524472575072377	0.4878121719861599	-0.03335354661376744	-0.11834327322483562	0.4759575323859558	-0.03239188992272923	-0.07534986981968683	0.5737262025358009	-0.005132458650728977	-0.1482385484983757	0.5593669158417915	0.005624494729935536	-0.14576896561751163	0.5370965809040416	0.015623622399697834	-0.13976401261151516	0.4994966662328361	0.009142129438092339	-0.12084648741114268	0.5931396764615893	0.0079669152937899	-0.13262745654217079	0.5777796122799055	0.015854074871768598	-0.12716292160074605	0.5515534594419642	0.02510515245105782	-0.11844420489799001	0.5107203971584464	0.0207475177641393	-0.10084250141549367	0.5938158588697835	0.001219217848469123	-0.11105837709268407	0.5805217546051002	0.011342588887082838	-0.10429197844833205	0.5599756217819514	0.022285835795815112	-0.09544428088862456	0.5219233318326009	0.021326947124945206	-0.08181253132639177	0.5897847760056346	-0.01921533280777632	-0.07826357844120857	0.5783200909754048	-0.00751306412382613	-0.07330193508378546	0.561580830588912	0.004060943162321529	-0.06813942251204375	0.5269880365533551	0.011443155635065594	-0.06108782759877651	0.4622830810018609	-0.023011742144276925	-0.051989820119430985
50	1.6999999999999926	0.5294338670894836	-0.0246346109327098	-0.15130684455667542	0.5130524815148281	-0.02719495417854223	-0.13539788955900223	0.48763814235010566	-0.033119101908078985	-0.11843216415455571	0.47590177787347293	-0.03234138772297923	-0.0754026055986291	0.5734633844403614	-0.004666975165299236	-0.14857108923037116	0.559076373277442	0.0060364760033239095	-0.14603139576876345	0.5367865467143375	0.015929789153261043	-0.1399243654180936	0.4992645794228136	0.00924813551922088	-0.12092190322793162	0.5927962219272311	0.007869842875590005	-0.1328543744143066	0.5774889437341868	0.015859581394047972	-0.12739073892798292	0.5513087783127666	0.025201943414380534	-0.11863124348657061	0.5105160073905621	0.02087723223877358	-0.10092828794982056	0.593467958661434	0.0012223017857748708	-0.11129727851251636	0.5802246283625594	0.011397450720971869	-0.10450901314193206	0.5597505266681444	0.02247060082357788	-0.09565596363275641	0.5217432103760729	0.02150994365930725	-0.0818994422669761	0.5895884261355104	-0.018828738857105565	-0.07856215767967889	0.5782133073931296	-0.007052490994459815	-0.07356949707893046	0.5614717653120426	0.004480619476287306	-0.06832353190398543	0.5268494808998708	0.011668285495997965	-0.06121590710579916	0.4622830810018609	-0.023011742144276925	-0.051989820119430985
